<svg xmlns="http://www.w3.org/2000/svg" width="1536" height="1024" viewBox="0 0 1536 1024">
<rect width="1536" height="1024" fill="white"/>
<path d="M 1024.00 441.60 L 896.00 219.90 L 640.00 219.90 L 512.00 441.60 L 640.00 663.30 L 896.00 663.30 Z" fill="rgb(246, 246, 242)" stroke="none"/>
<path d="M 512.00 441.60 L 640.00 663.30 L 518.06 733.70 L 390.06 512.00 Z" fill="rgb(246, 246, 242)" stroke="none"/>
<path d="M 640.00 663.30 L 896.00 663.30 L 896.00 804.10 L 640.00 804.10 Z" fill="rgb(246, 246, 242)" stroke="none"/>
<path d="M 896.00 663.30 L 1024.00 441.60 L 1145.94 512.00 L 1017.94 733.70 Z" fill="rgb(246, 246, 242)" stroke="none"/>
<line x1="1024.00" y1="441.60" x2="896.00" y2="219.90" stroke="rgb(40, 40, 40)" stroke-width="4" stroke-linecap="round"/>
<line x1="896.00" y1="219.90" x2="640.00" y2="219.90" stroke="rgb(40, 40, 40)" stroke-width="4" stroke-linecap="round"/>
<line x1="640.00" y1="219.90" x2="512.00" y2="441.60" stroke="rgb(40, 40, 40)" stroke-width="4" stroke-linecap="round"/>
<line x1="640.00" y1="663.30" x2="518.06" y2="733.70" stroke="rgb(40, 40, 40)" stroke-width="4" stroke-linecap="round"/>
<line x1="518.06" y1="733.70" x2="390.06" y2="512.00" stroke="rgb(40, 40, 40)" stroke-width="4" stroke-linecap="round"/>
<line x1="390.06" y1="512.00" x2="512.00" y2="441.60" stroke="rgb(40, 40, 40)" stroke-width="4" stroke-linecap="round"/>
<line x1="896.00" y1="663.30" x2="896.00" y2="804.10" stroke="rgb(40, 40, 40)" stroke-width="4" stroke-linecap="round"/>
<line x1="896.00" y1="804.10" x2="640.00" y2="804.10" stroke="rgb(40, 40, 40)" stroke-width="4" stroke-linecap="round"/>
<line x1="640.00" y1="804.10" x2="640.00" y2="663.30" stroke="rgb(40, 40, 40)" stroke-width="4" stroke-linecap="round"/>
<line x1="1024.00" y1="441.60" x2="1145.94" y2="512.00" stroke="rgb(40, 40, 40)" stroke-width="4" stroke-linecap="round"/>
<line x1="1145.94" y1="512.00" x2="1017.94" y2="733.70" stroke="rgb(40, 40, 40)" stroke-width="4" stroke-linecap="round"/>
<line x1="1017.94" y1="733.70" x2="896.00" y2="663.30" stroke="rgb(40, 40, 40)" stroke-width="4" stroke-linecap="round"/>
<line x1="512.00" y1="441.60" x2="640.00" y2="663.30" stroke="rgb(40, 40, 40)" stroke-width="3" stroke-linecap="round"/>
<line x1="640.00" y1="663.30" x2="896.00" y2="663.30" stroke="rgb(40, 40, 40)" stroke-width="3" stroke-linecap="round"/>
<line x1="896.00" y1="663.30" x2="1024.00" y2="441.60" stroke="rgb(40, 40, 40)" stroke-width="3" stroke-linecap="round"/>
</svg>
