<svg xmlns="http://www.w3.org/2000/svg" width="1536" height="1024" viewBox="0 0 1536 1024">
<rect width="1536" height="1024" fill="white"/>
<line x1="768.00" y1="0.00" x2="768.00" y2="1024.00" stroke="rgb(40, 40, 40)" stroke-width="2" stroke-linecap="round"/>
<path d="M 622.55 419.64 L 447.92 318.83 L 209.37 355.73 L 145.45 493.44 L 320.08 594.26 L 558.63 557.36 Z" fill="none" stroke="rgb(40, 40, 40)" stroke-width="4" stroke-linejoin="round"/>
<path d="M 145.45 493.44 L 320.08 594.26 L 320.08 705.17 L 145.45 604.36 Z" fill="none" stroke="rgb(40, 40, 40)" stroke-width="4" stroke-linejoin="round"/>
<path d="M 320.08 594.26 L 558.63 557.36 L 558.63 668.27 L 320.08 705.17 Z" fill="none" stroke="rgb(40, 40, 40)" stroke-width="4" stroke-linejoin="round"/>
<path d="M 558.63 557.36 L 622.55 419.64 L 622.55 530.56 L 558.63 668.27 Z" fill="none" stroke="rgb(40, 40, 40)" stroke-width="4" stroke-linejoin="round"/>
<path d="M 1376.00 363.64 L 1264.00 169.66 L 1040.00 169.66 L 928.00 363.64 L 1040.00 557.63 L 1264.00 557.63 Z" fill="none" stroke="rgb(178, 178, 170)" stroke-width="2" stroke-linejoin="round"/>
<path d="M 816.00 731.14 L 1488.00 731.14 L 1488.00 854.34 L 816.00 854.34 Z" fill="none" stroke="rgb(178, 178, 170)" stroke-width="2" stroke-linejoin="round"/>
</svg>
