<svg xmlns="http://www.w3.org/2000/svg" width="1536" height="1024" viewBox="0 0 1536 1024">
<rect width="1536" height="1024" fill="white"/>
<line x1="768.00" y1="0.00" x2="768.00" y2="1024.00" stroke="rgb(40, 40, 40)" stroke-width="2" stroke-linecap="round"/>
<line x1="622.55" y1="318.81" x2="447.92" y2="218.00" stroke="rgb(40, 40, 40)" stroke-width="4" stroke-linecap="round"/>
<line x1="447.92" y1="218.00" x2="209.37" y2="254.90" stroke="rgb(40, 40, 40)" stroke-width="4" stroke-linecap="round"/>
<line x1="209.37" y1="254.90" x2="145.45" y2="392.61" stroke="rgb(40, 40, 40)" stroke-width="4" stroke-linecap="round"/>
<line x1="320.08" y1="806.00" x2="145.45" y2="705.19" stroke="rgb(40, 40, 40)" stroke-width="4" stroke-linecap="round"/>
<line x1="145.45" y1="705.19" x2="145.45" y2="392.61" stroke="rgb(40, 40, 40)" stroke-width="4" stroke-linecap="round"/>
<line x1="558.63" y1="769.10" x2="320.08" y2="806.00" stroke="rgb(40, 40, 40)" stroke-width="4" stroke-linecap="round"/>
<line x1="622.55" y1="318.81" x2="622.55" y2="631.39" stroke="rgb(40, 40, 40)" stroke-width="4" stroke-linecap="round"/>
<line x1="622.55" y1="631.39" x2="558.63" y2="769.10" stroke="rgb(40, 40, 40)" stroke-width="4" stroke-linecap="round"/>
<line x1="145.45" y1="392.61" x2="320.08" y2="493.43" stroke="rgb(40, 40, 40)" stroke-width="4" stroke-linecap="round"/>
<line x1="320.08" y1="493.43" x2="558.63" y2="456.53" stroke="rgb(40, 40, 40)" stroke-width="4" stroke-linecap="round"/>
<line x1="558.63" y1="456.53" x2="622.55" y2="318.81" stroke="rgb(40, 40, 40)" stroke-width="4" stroke-linecap="round"/>
<line x1="320.08" y1="806.00" x2="320.08" y2="493.43" stroke="rgb(40, 40, 40)" stroke-width="4" stroke-linecap="round"/>
<line x1="558.63" y1="769.10" x2="558.63" y2="456.53" stroke="rgb(40, 40, 40)" stroke-width="4" stroke-linecap="round"/>
<path d="M 1295.45 400.83 L 1223.72 276.60 L 1080.28 276.60 L 1008.55 400.83 L 1080.28 525.06 L 1223.72 525.06 Z" fill="rgb(246, 246, 242)" stroke="none"/>
<path d="M 1008.55 400.83 L 1080.28 525.06 L 887.72 636.23 L 816.00 512.00 Z" fill="rgb(246, 246, 242)" stroke="none"/>
<path d="M 1080.28 525.06 L 1223.72 525.06 L 1223.72 747.40 L 1080.28 747.40 Z" fill="rgb(246, 246, 242)" stroke="none"/>
<path d="M 1223.72 525.06 L 1295.45 400.83 L 1488.00 512.00 L 1416.28 636.23 Z" fill="rgb(246, 246, 242)" stroke="none"/>
<line x1="1295.45" y1="400.83" x2="1223.72" y2="276.60" stroke="rgb(40, 40, 40)" stroke-width="4" stroke-linecap="round"/>
<line x1="1223.72" y1="276.60" x2="1080.28" y2="276.60" stroke="rgb(40, 40, 40)" stroke-width="4" stroke-linecap="round"/>
<line x1="1080.28" y1="276.60" x2="1008.55" y2="400.83" stroke="rgb(40, 40, 40)" stroke-width="4" stroke-linecap="round"/>
<line x1="1080.28" y1="525.06" x2="887.72" y2="636.23" stroke="rgb(40, 40, 40)" stroke-width="4" stroke-linecap="round"/>
<line x1="887.72" y1="636.23" x2="816.00" y2="512.00" stroke="rgb(40, 40, 40)" stroke-width="4" stroke-linecap="round"/>
<line x1="816.00" y1="512.00" x2="1008.55" y2="400.83" stroke="rgb(40, 40, 40)" stroke-width="4" stroke-linecap="round"/>
<line x1="1223.72" y1="525.06" x2="1223.72" y2="747.40" stroke="rgb(40, 40, 40)" stroke-width="4" stroke-linecap="round"/>
<line x1="1223.72" y1="747.40" x2="1080.28" y2="747.40" stroke="rgb(40, 40, 40)" stroke-width="4" stroke-linecap="round"/>
<line x1="1080.28" y1="747.40" x2="1080.28" y2="525.06" stroke="rgb(40, 40, 40)" stroke-width="4" stroke-linecap="round"/>
<line x1="1295.45" y1="400.83" x2="1488.00" y2="512.00" stroke="rgb(40, 40, 40)" stroke-width="4" stroke-linecap="round"/>
<line x1="1488.00" y1="512.00" x2="1416.28" y2="636.23" stroke="rgb(40, 40, 40)" stroke-width="4" stroke-linecap="round"/>
<line x1="1416.28" y1="636.23" x2="1223.72" y2="525.06" stroke="rgb(40, 40, 40)" stroke-width="4" stroke-linecap="round"/>
<line x1="1008.55" y1="400.83" x2="1080.28" y2="525.06" stroke="rgb(40, 40, 40)" stroke-width="3" stroke-linecap="round"/>
<line x1="1080.28" y1="525.06" x2="1223.72" y2="525.06" stroke="rgb(40, 40, 40)" stroke-width="3" stroke-linecap="round"/>
<line x1="1223.72" y1="525.06" x2="1295.45" y2="400.83" stroke="rgb(40, 40, 40)" stroke-width="3" stroke-linecap="round"/>
</svg>
